<svg width="100" height="100" xmlns="http://www.w3.org/2000/svg">
 <!-- Created with Method Draw - http://github.com/duopixel/Method-Draw/ -->

 <g>
  <title>background</title>
 </g>
 <g>
  <title>Layer 1</title>
  <g stroke="null" id="svg_13">
   <path stroke="null" fill="#007f3f" id="svg_1" d="m44.01352,3.56334c-17.708,2.32348 -31.49258,14.63041 -38.73475,30.42935c-1.05984,2.30988 -2.56126,4.64694 -3.15571,7.13348c-2.09589,8.79794 -1.05644,17.34452 1.7494,25.81636c1.4165,4.28009 2.93831,8.59074 5.69318,12.22881c6.33861,8.35975 14.18882,13.58077 23.91412,17.05919c6.36917,2.27592 13.29203,3.03682 20.04166,2.20798c4.56543,-0.56049 9.65058,-1.02247 13.92726,-2.77527c16.83839,-6.90248 27.8715,-23.04451 29.1827,-40.94952c1.9668,-26.84904 -25.47329,-54.71374 -52.62125,-51.1504l0.0034,0zm1.33158,1.72222l-0.0034,0"/>
   <path stroke="null" fill="#5fbf00" id="svg_2" d="m45.34171,5.28557c-7.05535,0.99528 -14.45377,3.39689 -20.35078,7.55468c-9.9427,7.00779 -17.48379,16.37303 -20.53081,28.28593c-4.46011,17.43284 3.6075,37.67152 18.49607,47.53269c9.4094,6.23331 21.81823,8.78436 32.94986,7.4358c25.0249,-3.03342 41.40131,-27.28384 37.93987,-51.5716c-2.9485,-20.70406 -26.86601,-42.28451 -48.50081,-39.2375l-0.0034,0z"/>
   <path stroke="null" fill="#d4ffaa" id="svg_3" d="m48.0898,13.07803c-7.18443,0.85942 -13.43812,1.76978 -19.70198,5.84945c-15.28941,9.95629 -22.2972,30.30367 -14.99048,47.28133c3.51578,8.16952 9.87476,14.81044 17.46342,19.37926c7.70754,4.64017 17.45662,4.70129 26.06094,3.7196c5.56411,-0.63183 11.4713,-4.51446 15.66986,-8.00307c7.98609,-6.63752 13.46867,-15.46945 14.46735,-25.9081c1.99058,-20.86709 -16.50889,-44.99862 -38.96913,-42.31508l0,-0.0034z"/>
   <path stroke="null" fill="#5fbf00" id="svg_4" d="m50.80731,15.22147c-3.30178,0.07134 -8.14235,-0.49935 -10.17369,2.8398c-0.96133,1.57616 0.12569,3.17269 0.56049,4.71829c1.11757,3.99134 1.91923,7.98609 3.41388,11.88911c1.08021,2.82622 1.54898,5.73736 2.92472,8.49223c0.35668,0.71335 0.98509,2.30649 1.95321,2.30649c1.98038,0 4.19515,-7.14027 4.92549,-8.76059c1.86829,-4.15099 3.13873,-8.57715 4.41935,-12.90818c0.49255,-1.66448 1.57616,-3.63128 0.84244,-5.39766c-1.1074,-2.66995 -6.38956,-3.23384 -8.86589,-3.17949z"/>
   <path stroke="null" fill="#5fbf00" id="svg_5" d="m33.82285,21.43098c-4.35141,-0.27175 -9.89514,6.2401 -11.79061,9.50451c-0.70656,1.21608 -2.38462,3.23724 -1.67127,4.6945c0.82883,1.69165 3.43086,2.90094 4.97305,3.84529c4.83717,2.96209 13.15955,7.88758 19.00901,7.74491c2.74808,-0.06794 0.87639,-4.76923 0.29553,-6.09402c-2.13325,-4.87454 -4.63677,-9.72531 -6.63754,-14.60664c-0.80845,-1.9736 -1.47765,-4.92209 -4.17477,-5.08854l-0.0034,0z"/>
   <path stroke="null" fill="#5fbf00" id="svg_6" d="m65.85554,22.43987c-1.70184,0.91376 -2.47634,3.50899 -3.3867,5.09873c-2.44577,4.28008 -5.02061,8.44128 -7.07573,12.90818c-0.72693,1.57955 -2.53407,4.21215 -1.73581,6.06345c0.70996,1.6441 3.45124,0.51633 4.62317,0.02718c3.89624,-1.63051 7.18783,-4.15779 10.87006,-6.16196c2.84659,-1.54898 6.84474,-3.50899 8.10158,-6.72245c1.84112,-4.70469 -6.50505,-13.83554 -11.39657,-11.21313z"/>
   <path stroke="null" fill="#5fbf00" id="svg_7" d="m79.68089,41.22468c-1.13797,-0.02718 -2.26573,0.94093 -3.39689,1.14814c-5.19725,0.95792 -10.39789,3.32216 -15.28601,5.41465c-1.27723,0.54689 -4.94248,1.70864 -4.88473,3.51578c0.05775,1.81394 3.93019,2.70392 5.22442,3.27121c5.61165,2.45255 11.7974,5.64562 18.0273,5.55051c5.20744,-0.07813 5.39427,-11.77023 4.19176,-15.26223c-0.47555,-1.37914 -2.2827,-3.60069 -3.87584,-3.63806z"/>
   <path stroke="null" fill="#5fbf00" id="svg_8" d="m18.20394,41.99916c-3.17949,0.92396 -3.64487,5.23461 -3.69242,7.95891c-0.1087,6.01251 0.2174,12.4632 8.105,10.34693c4.98324,-1.33498 10.45902,-3.30517 14.94632,-5.82906c1.27723,-0.72015 4.05588,-1.56257 4.42614,-3.19987c0.51294,-2.26573 -3.68563,-3.08099 -5.10553,-3.78414c-3.22365,-1.59994 -6.52543,-2.38123 -9.85098,-3.64147c-2.56466,-0.9715 -5.97852,-2.67335 -8.82513,-1.84791l-0.0034,-0.0034z"/>
   <path stroke="null" fill="#5fbf00" id="svg_9" d="m42.99446,54.66278c-1.91585,0.24117 -3.73319,1.72562 -5.43503,2.53747c-4.99343,2.37783 -13.326,5.60827 -16.0707,10.77495c-2.69373,5.07156 4.87793,12.92517 10.26541,12.37826c2.16043,-0.22078 3.69922,-3.5871 4.53824,-5.25839c2.58504,-5.14288 5.50976,-10.10236 8.03026,-15.286c0.78128,-1.61013 1.83093,-5.54373 -1.32818,-5.14629z"/>
   <path stroke="null" fill="#5fbf00" id="svg_10" d="m54.12267,55.74299c-1.83093,1.5286 1.94642,8.82852 2.76167,10.52018c1.74261,3.61429 3.27121,7.27613 5.03759,10.87004c0.71335,1.45047 1.25346,3.46143 3.1659,3.67204c2.46615,0.27175 4.94248,-2.35064 6.68508,-3.79773c2.14005,-1.77658 7.93515,-7.58185 6.63754,-10.71039c-1.4301,-3.44445 -8.5228,-5.54373 -11.63776,-7.05535c-3.03002,-1.46746 -5.88001,-2.73449 -9.1716,-3.39689c-0.96812,-0.19362 -2.59863,-0.83904 -3.47842,-0.1053l0,0.0034z"/>
   <path stroke="null" fill="#5fbf00" id="svg_11" d="m48.44986,58.15819c-2.84659,1.21948 -4.10683,8.20009 -5.02061,10.82249c-1.28742,3.68563 -5.46221,10.19068 -4.31065,14.23638c0.49255,1.72902 2.69033,2.23854 4.21553,2.619c3.98796,0.9953 10.02423,1.68486 13.89329,-0.15626c2.43897,-1.16173 1.93623,-3.76036 1.37234,-5.82906c-1.46066,-5.3569 -3.41727,-11.23353 -5.69318,-16.30509c-0.70996,-1.58295 -1.76638,-6.54241 -4.45673,-5.38746z"/>
  </g>
 </g>
</svg>